<?xml version="1.0" standalone="no"?>
<!DOCTYPE svg PUBLIC "-//W3C//DTD SVG 20010904//EN"
 "http://www.w3.org/TR/2001/REC-SVG-20010904/DTD/svg10.dtd">
<svg version="1.0" xmlns="http://www.w3.org/2000/svg"
 width="1080.000000pt" height="1080.000000pt" viewBox="0 0 1080.000000 1080.000000"
 preserveAspectRatio="xMidYMid meet">
<metadata>
Created by potrace 1.14, written by Peter Selinger 2001-2017
</metadata>
<g transform="translate(0.000000,1080.000000) scale(0.100000,-0.100000)"
fill="#000000" stroke="none">
<path d="M2035 10227 c-22 -13 -49 -40 -62 -62 l-23 -40 0 -4725 0 -4725 23
-40 c13 -22 40 -49 62 -62 l40 -23 3317 0 c2319 0 3325 3 3345 11 38 14 82 57
99 98 12 29 14 699 14 4738 0 4223 -2 4707 -15 4741 -9 20 -26 47 -38 60 -52
56 183 52 -3406 52 l-3316 0 -40 -23z m1585 -916 c0 -388 5 -429 63 -567 104
-248 329 -435 599 -499 126 -30 353 -15 463 30 56 23 149 68 155 75 3 3 23 17
45 31 96 64 206 192 268 314 37 73 76 209 83 293 l7 72 97 0 97 0 7 -72 c7
-84 46 -220 83 -293 61 -120 174 -252 268 -314 22 -14 42 -28 45 -31 6 -7 122
-62 165 -78 121 -46 336 -56 469 -22 267 68 480 249 583 494 58 138 63 179 63
567 l0 349 446 0 c310 0 459 -4 485 -12 54 -16 115 -71 139 -125 20 -45 20
-64 20 -943 0 -984 3 -932 -60 -1003 -16 -19 -52 -44 -79 -56 l-50 -21 -2733
2 c-2582 3 -2735 4 -2765 21 -18 9 -48 33 -67 53 -69 71 -66 31 -66 1004 0
976 -3 933 68 1005 75 76 58 74 610 74 l492 1 0 -349z m630 -141 l0 -100 -100
0 -100 0 0 100 0 100 100 0 100 0 0 -100z m420 0 l0 -100 -105 0 -105 0 0 100
0 100 105 0 105 0 0 -100z m1460 0 l0 -100 -105 0 -105 0 0 100 0 100 105 0
105 0 0 -100z m410 0 l0 -100 -100 0 -100 0 0 100 0 100 100 0 100 0 0 -100z
m-2080 -210 l0 -100 -100 0 -100 0 0 100 0 100 100 0 100 0 0 -100z m1880 0
l0 -100 -105 0 -105 0 0 100 0 100 105 0 105 0 0 -100z m-1670 -210 l0 -100
-105 0 -105 0 0 100 0 100 105 0 105 0 0 -100z m1870 0 l0 -100 -100 0 -100 0
0 100 0 100 100 0 100 0 0 -100z m-1537 -1766 c27 -9 63 -33 87 -57 75 -77 71
-7 68 -1208 l-3 -1076 -30 -49 c-19 -30 -49 -60 -79 -79 l-49 -30 -1180 -3
-1180 -2 -52 24 c-55 25 -93 66 -119 130 -14 34 -16 150 -15 1105 0 1196 -5
1113 74 1192 71 71 -7 67 1276 68 1029 1 1161 -1 1202 -15z m3212 -8 c28 -13
62 -37 77 -54 61 -70 58 -3 58 -1189 0 -1064 0 -1085 -20 -1123 -25 -50 -64
-87 -115 -111 -38 -18 -87 -19 -1204 -19 -855 0 -1174 3 -1202 12 -52 15 -113
68 -138 122 l-21 43 2 1089 3 1089 28 47 c30 51 70 84 126 104 29 10 274 13
1196 13 l1160 1 50 -24z m-3183 -2999 c26 -15 59 -42 72 -60 58 -76 56 -26 56
-1177 0 -1167 3 -1110 -63 -1178 -18 -19 -50 -43 -72 -55 l-40 -22 -1180 0
-1180 0 -40 22 c-57 31 -84 59 -111 117 l-24 51 0 1061 c0 1154 -2 1105 55
1180 32 42 89 76 140 85 22 4 558 6 1190 5 l1150 -1 47 -28z m3181 10 c48 -22
91 -65 117 -117 20 -39 20 -58 20 -1124 0 -825 -3 -1092 -12 -1113 -22 -52
-68 -101 -115 -124 l-48 -24 -1175 0 -1175 0 -53 29 c-60 33 -95 75 -112 132
-8 28 -10 328 -8 1119 3 1007 4 1082 21 1112 34 64 96 109 167 124 19 4 553 6
1185 5 1084 -1 1152 -2 1188 -19z"/>
<path d="M5940 8061 c-19 -5 -26 -15 -28 -38 -3 -26 2 -34 24 -46 l28 -15 -95
-45 c-170 -83 -380 -119 -566 -98 -126 14 -271 60 -357 112 -36 22 -70 39 -75
39 -16 0 -51 -38 -51 -54 0 -24 49 -63 125 -101 297 -147 693 -138 1000 23
l75 40 6 -27 c4 -14 11 -32 17 -38 12 -16 59 -17 75 -1 34 34 -9 149 -81 216
-48 43 -54 45 -97 33z"/>
<path d="M3740 6604 c-78 -30 -100 -47 -124 -97 -26 -51 -26 -53 -26 -304 l0
-253 -254 0 c-275 0 -297 -3 -349 -56 -36 -36 -50 -94 -45 -182 4 -62 9 -78
35 -110 56 -70 67 -72 356 -72 l257 0 0 -246 c0 -286 4 -308 67 -364 36 -31
55 -40 99 -46 113 -14 204 22 241 96 16 31 18 66 18 297 l0 263 260 0 c292 0
302 2 359 73 26 32 31 48 34 107 6 95 -3 134 -40 176 -54 61 -71 64 -353 64
l-254 0 -3 263 c-3 256 -4 263 -27 304 -32 55 -93 86 -176 90 -33 1 -67 0 -75
-3z"/>
<path d="M6233 5931 c-26 -13 -51 -34 -67 -60 -23 -36 -26 -51 -26 -134 0 -88
2 -97 29 -134 56 -78 9 -74 844 -71 l744 3 36 28 c55 42 67 72 68 177 1 82 -2
95 -25 130 -14 22 -44 49 -66 60 -38 20 -56 20 -767 20 -694 0 -730 -1 -770
-19z"/>
<path d="M3710 3550 c-87 -46 -130 -138 -106 -230 17 -66 39 -96 94 -131 38
-24 57 -29 108 -29 53 0 69 5 110 33 72 48 95 95 92 184 -3 63 -7 76 -34 110
-47 58 -98 83 -169 82 -39 0 -72 -6 -95 -19z"/>
<path d="M3080 2901 c-45 -9 -80 -32 -111 -73 -22 -30 -24 -42 -24 -133 0
-114 13 -144 83 -187 l37 -23 742 0 741 0 43 30 c62 44 79 84 79 180 0 96 -17
136 -79 180 l-43 30 -716 2 c-395 0 -733 -2 -752 -6z"/>
<path d="M3708 2220 c-80 -42 -127 -148 -105 -234 44 -172 257 -214 371 -73
27 34 31 47 34 110 3 89 -20 136 -92 185 -42 28 -57 32 -110 32 -40 -1 -73 -7
-98 -20z"/>
<path d="M6455 3412 c-45 -28 -118 -108 -132 -145 -34 -94 -10 -135 202 -346
l175 -175 -183 -185 c-207 -210 -221 -233 -198 -319 14 -53 91 -140 147 -167
37 -18 101 -20 141 -4 15 6 110 92 210 192 l183 181 177 -176 c98 -96 192
-183 210 -192 40 -20 115 -21 151 -2 38 20 129 116 141 149 15 40 14 81 -4
125 -10 23 -82 104 -195 217 l-180 180 176 175 c96 96 184 192 195 212 22 43
24 93 6 136 -17 40 -96 126 -135 146 -42 22 -115 20 -160 -3 -20 -11 -113 -96
-206 -190 -94 -94 -172 -171 -176 -171 -3 0 -79 75 -170 166 -91 91 -182 177
-202 190 -47 30 -128 33 -173 6z"/>
</g>
</svg>
