<?xml version="1.0" standalone="no"?>
<!DOCTYPE svg PUBLIC "-//W3C//DTD SVG 20010904//EN"
 "http://www.w3.org/TR/2001/REC-SVG-20010904/DTD/svg10.dtd">
<svg version="1.0" xmlns="http://www.w3.org/2000/svg"
 width="688.000000pt" height="688.000000pt" viewBox="0 0 688.000000 688.000000"
 preserveAspectRatio="xMidYMid meet">
<metadata>
Created by potrace 1.14, written by Peter Selinger 2001-2017
</metadata>
<g transform="translate(0.000000,688.000000) scale(0.100000,-0.100000)"
fill="#000000" stroke="none">
<path d="M1445 6818 c-198 -37 -388 -230 -424 -432 -7 -40 -11 -373 -11 -1001
l0 -942 -51 -33 c-131 -84 -279 -351 -340 -610 -41 -171 -52 -262 -51 -430 0
-227 28 -353 108 -476 36 -54 105 -110 157 -125 38 -11 126 -14 156 -4 l21 6
0 -723 c0 -600 3 -735 15 -793 48 -224 239 -399 465 -425 47 -5 122 -10 168
-10 l82 0 0 -52 c0 -143 54 -367 120 -497 164 -327 466 -327 630 0 66 130 120
354 120 497 l0 52 830 0 830 0 0 -52 c0 -143 54 -367 120 -497 164 -327 466
-327 630 0 66 130 120 354 120 497 l0 52 78 0 c42 0 115 5 162 10 226 26 417
201 465 425 12 58 15 193 15 797 l0 728 28 -11 c33 -13 126 -13 169 0 52 15
121 71 157 125 80 123 108 249 108 476 0 168 -11 261 -51 430 -63 269 -210
527 -350 616 l-61 39 0 936 c0 623 -4 955 -11 995 -37 206 -227 396 -433 433
-77 14 -3897 13 -3971 -1z m4057 -151 c92 -45 157 -112 202 -207 28 -59 31
-76 34 -180 l4 -115 -54 -27 -53 -28 -989 0 c-907 0 -991 -1 -1008 -17 -10 -9
-18 -28 -18 -42 l0 -26 -180 0 -180 0 0 24 c0 14 -7 33 -17 43 -15 17 -60 18
-1006 18 l-989 0 -59 31 -59 32 0 86 c0 47 6 109 14 137 39 146 151 259 296
300 36 10 458 12 2016 11 l1970 -2 76 -38z m-4279 -926 c6 -340 18 -445 63
-580 34 -102 76 -173 141 -237 50 -51 130 -100 177 -110 11 -3 41 -9 66 -15
91 -20 139 -21 236 -4 318 56 715 256 1137 571 89 67 174 133 190 147 l27 26
0 209 c0 182 2 211 16 216 9 3 82 6 164 6 82 0 155 -3 164 -6 14 -5 16 -34 16
-213 0 -151 3 -212 13 -223 6 -9 56 -50 110 -92 450 -348 876 -573 1208 -636
113 -22 170 -25 215 -11 16 5 54 14 84 21 84 19 149 57 212 123 149 154 198
375 198 895 l0 222 33 20 c17 11 35 20 40 20 4 0 7 -1077 7 -2394 0 -2356 0
-2395 -20 -2457 -39 -125 -142 -234 -263 -276 -50 -17 -139 -18 -2022 -18
-1871 0 -1973 1 -2022 18 -119 42 -225 153 -263 275 -20 63 -20 100 -20 2463
l0 2399 44 -21 43 -22 6 -316z m1796 306 c-8 -7 -1434 -1130 -1446 -1140 -16
-12 -51 10 -108 70 -48 50 -94 130 -120 212 l-18 54 24 18 c13 10 242 191 509
402 l485 385 339 1 c187 1 337 -1 335 -2z m2579 -29 c-3 -29 -53 -71 -590
-495 l-586 -463 -99 56 c-130 73 -273 167 -270 177 1 4 216 176 477 382 l474
375 299 0 298 0 -3 -32z m355 -1794 c55 -68 133 -222 171 -339 139 -429 100
-899 -84 -993 -49 -25 -85 -24 -146 5 l-34 17 0 699 0 699 23 -14 c12 -8 44
-42 70 -74z m-4947 -1320 c-2 -5 -22 -16 -45 -22 -85 -26 -161 19 -210 121
-49 104 -66 201 -65 377 2 345 108 679 281 880 l38 44 3 -694 c1 -382 0 -700
-2 -706z m1489 -2136 c-32 -282 -91 -459 -186 -557 -73 -75 -131 -88 -209 -45
-124 67 -216 293 -243 597 l-6 57 325 0 325 0 -6 -52z m2530 0 c-32 -282 -91
-459 -186 -557 -73 -75 -131 -88 -209 -45 -124 67 -216 293 -243 597 l-6 57
325 0 325 0 -6 -52z"/>
<path d="M3899 4455 c-100 -81 -215 -137 -345 -172 -170 -44 -519 -43 -683 3
-22 7 -20 1 21 -52 83 -108 197 -208 289 -253 187 -91 355 -71 544 64 162 115
316 349 306 463 -3 29 -53 9 -132 -53z m35 -77 c-52 -104 -178 -241 -284 -311
-119 -79 -264 -100 -385 -58 -69 24 -172 92 -228 149 l-37 38 168 -4 c188 -5
298 6 430 44 103 29 230 89 292 138 56 44 65 45 44 4z"/>
</g>
</svg>
